<?xml version="1.0" encoding="UTF-8" standalone="no"?>
<!DOCTYPE svg PUBLIC "-//W3C//DTD SVG 1.1//EN"
 "http://www.w3.org/Graphics/SVG/1.1/DTD/svg11.dtd">
<!-- Generated by graphviz version 2.26.3 (20100126.1600)
 -->
<!-- Title: states Pages: 1 -->
<svg width="319pt" height="524pt"
 viewBox="0.00 0.00 319.00 524.00" xmlns="http://www.w3.org/2000/svg" xmlns:xlink="http://www.w3.org/1999/xlink">
<g id="graph1" class="graph" transform="scale(1 1) rotate(0) translate(4 520)">
<title>states</title>
<polygon fill="white" stroke="white" points="-4,5 -4,-520 316,-520 316,5 -4,5"/>
<!-- start_node -->
<g id="node1" class="node"><title>start_node</title>
<ellipse fill="black" stroke="black" cx="158" cy="-509" rx="7" ry="7"/>
</g>
<!-- CardPassing -->
<g id="node4" class="node"><title>CardPassing</title>
<ellipse fill="none" stroke="black" cx="158" cy="-447" rx="58.8978" ry="19.0919"/>
<text text-anchor="middle" x="158" y="-443.9" font-family="Times Roman,serif" font-size="14.00">CardPassing</text>
</g>
<!-- start_node&#45;&gt;CardPassing -->
<g id="edge2" class="edge"><title>start_node&#45;&gt;CardPassing</title>
<path fill="none" stroke="black" d="M158,-501.888C158,-495.534 158,-485.784 158,-476.254"/>
<polygon fill="black" stroke="black" points="161.5,-476.171 158,-466.171 154.5,-476.171 161.5,-476.171"/>
</g>
<!-- end_node -->
<g id="node2" class="node"><title>end_node</title>
<ellipse fill="black" stroke="black" cx="59" cy="-11" rx="7" ry="7"/>
<ellipse fill="none" stroke="black" cx="59" cy="-11" rx="11" ry="11"/>
</g>
<!-- CardPassingWaiting -->
<g id="node6" class="node"><title>CardPassingWaiting</title>
<ellipse fill="none" stroke="black" cx="158" cy="-373" rx="90.0096" ry="19.0919"/>
<text text-anchor="middle" x="158" y="-369.9" font-family="Times Roman,serif" font-size="14.00">CardPassingWaiting</text>
</g>
<!-- CardPassing&#45;&gt;CardPassingWaiting -->
<g id="edge4" class="edge"><title>CardPassing&#45;&gt;CardPassingWaiting</title>
<path fill="none" stroke="black" d="M158,-427.943C158,-420.149 158,-410.954 158,-402.338"/>
<polygon fill="black" stroke="black" points="161.5,-402.249 158,-392.249 154.5,-402.249 161.5,-402.249"/>
</g>
<!-- FirstDealer -->
<g id="node8" class="node"><title>FirstDealer</title>
<ellipse fill="none" stroke="black" cx="83" cy="-299" rx="53.9477" ry="19.0919"/>
<text text-anchor="middle" x="83" y="-295.9" font-family="Times Roman,serif" font-size="14.00">FirstDealer</text>
</g>
<!-- CardPassingWaiting&#45;&gt;FirstDealer -->
<g id="edge6" class="edge"><title>CardPassingWaiting&#45;&gt;FirstDealer</title>
<path fill="none" stroke="black" d="M139.074,-354.327C129.807,-345.183 118.514,-334.041 108.499,-324.159"/>
<polygon fill="black" stroke="black" points="110.72,-321.434 101.143,-316.902 105.804,-326.416 110.72,-321.434"/>
</g>
<!-- WaitingFirstDeal -->
<g id="node10" class="node"><title>WaitingFirstDeal</title>
<ellipse fill="none" stroke="black" cx="233" cy="-299" rx="77.9889" ry="19.0919"/>
<text text-anchor="middle" x="233" y="-295.9" font-family="Times Roman,serif" font-size="14.00">WaitingFirstDeal</text>
</g>
<!-- CardPassingWaiting&#45;&gt;WaitingFirstDeal -->
<g id="edge8" class="edge"><title>CardPassingWaiting&#45;&gt;WaitingFirstDeal</title>
<path fill="none" stroke="black" d="M176.926,-354.327C185.986,-345.387 196.981,-334.539 206.827,-324.824"/>
<polygon fill="black" stroke="black" points="209.42,-327.182 214.08,-317.667 204.504,-322.199 209.42,-327.182"/>
</g>
<!-- WaitingDeal -->
<g id="node12" class="node"><title>WaitingDeal</title>
<ellipse fill="none" stroke="black" cx="108" cy="-225" rx="60.8112" ry="19.0919"/>
<text text-anchor="middle" x="108" y="-221.9" font-family="Times Roman,serif" font-size="14.00">WaitingDeal</text>
</g>
<!-- FirstDealer&#45;&gt;WaitingDeal -->
<g id="edge10" class="edge"><title>FirstDealer&#45;&gt;WaitingDeal</title>
<path fill="none" stroke="black" d="M89.4381,-279.943C92.1501,-271.916 95.3643,-262.402 98.3496,-253.565"/>
<polygon fill="black" stroke="black" points="101.699,-254.586 101.584,-243.992 95.0671,-252.346 101.699,-254.586"/>
</g>
<!-- WaitingFirstDeal&#45;&gt;WaitingDeal -->
<g id="edge18" class="edge"><title>WaitingFirstDeal&#45;&gt;WaitingDeal</title>
<path fill="none" stroke="black" d="M203.059,-281.275C185.68,-270.986 163.64,-257.939 145.159,-246.998"/>
<polygon fill="black" stroke="black" points="146.797,-243.9 136.408,-241.818 143.231,-249.924 146.797,-243.9"/>
</g>
<!-- YourTurn -->
<g id="node17" class="node"><title>YourTurn</title>
<ellipse fill="none" stroke="black" cx="186" cy="-77" rx="50.2046" ry="19.0919"/>
<text text-anchor="middle" x="186" y="-73.9" font-family="Times Roman,serif" font-size="14.00">YourTurn</text>
</g>
<!-- WaitingFirstDeal&#45;&gt;YourTurn -->
<g id="edge20" class="edge"><title>WaitingFirstDeal&#45;&gt;YourTurn</title>
<path fill="none" stroke="black" d="M228.911,-279.687C220.644,-240.638 201.901,-152.108 192.151,-106.055"/>
<polygon fill="black" stroke="black" points="195.541,-105.168 190.046,-96.11 188.693,-106.618 195.541,-105.168"/>
</g>
<!-- WaitingDeal&#45;&gt;WaitingDeal -->
<g id="edge12" class="edge"><title>WaitingDeal&#45;&gt;WaitingDeal</title>
<path fill="none" stroke="black" d="M150.666,-238.63C170.104,-240.022 187,-235.479 187,-225 187,-216.404 175.63,-211.802 160.815,-211.194"/>
<polygon fill="black" stroke="black" points="160.604,-207.697 150.666,-211.37 160.725,-214.696 160.604,-207.697"/>
</g>
<!-- EndOfTrick -->
<g id="node15" class="node"><title>EndOfTrick</title>
<ellipse fill="none" stroke="black" cx="91" cy="-151" rx="57.9828" ry="19.0919"/>
<text text-anchor="middle" x="91" y="-147.9" font-family="Times Roman,serif" font-size="14.00">EndOfTrick</text>
</g>
<!-- WaitingDeal&#45;&gt;EndOfTrick -->
<g id="edge14" class="edge"><title>WaitingDeal&#45;&gt;EndOfTrick</title>
<path fill="none" stroke="black" d="M97.6338,-205.943C95.1255,-198.149 92.8025,-188.954 91.1201,-180.338"/>
<polygon fill="black" stroke="black" points="94.5328,-179.527 89.4163,-170.249 87.6305,-180.693 94.5328,-179.527"/>
</g>
<!-- WaitingDeal&#45;&gt;YourTurn -->
<g id="edge16" class="edge"><title>WaitingDeal&#45;&gt;YourTurn</title>
<path fill="none" stroke="black" d="M120.808,-206.335C129.908,-196.403 141.371,-183.476 149,-170 160.407,-149.85 167.633,-124.558 173.27,-105.438"/>
<polygon fill="black" stroke="black" points="176.643,-106.378 176.171,-95.7934 169.939,-104.362 176.643,-106.378"/>
</g>
<!-- EndOfTrick&#45;&gt;WaitingDeal -->
<g id="edge26" class="edge"><title>EndOfTrick&#45;&gt;WaitingDeal</title>
<path fill="none" stroke="black" d="M101.263,-169.736C103.843,-177.699 106.235,-187.168 107.945,-195.998"/>
<polygon fill="black" stroke="black" points="104.507,-196.658 109.61,-205.943 111.411,-195.502 104.507,-196.658"/>
</g>
<!-- EndOfTrick&#45;&gt;YourTurn -->
<g id="edge28" class="edge"><title>EndOfTrick&#45;&gt;YourTurn</title>
<path fill="none" stroke="black" d="M108.567,-132.708C120.536,-122.618 136.608,-110.011 151.062,-99.342"/>
<polygon fill="black" stroke="black" points="153.315,-102.032 159.343,-93.3183 149.197,-96.3709 153.315,-102.032"/>
</g>
<!-- GameEnded -->
<g id="node25" class="node"><title>GameEnded</title>
<ellipse fill="none" stroke="black" cx="59" cy="-77" rx="58.8978" ry="19.0919"/>
<text text-anchor="middle" x="59" y="-73.9" font-family="Times Roman,serif" font-size="14.00">GameEnded</text>
</g>
<!-- EndOfTrick&#45;&gt;GameEnded -->
<g id="edge30" class="edge"><title>EndOfTrick&#45;&gt;GameEnded</title>
<path fill="none" stroke="black" d="M82.7592,-131.943C79.2506,-123.829 75.0851,-114.197 71.2294,-105.28"/>
<polygon fill="black" stroke="black" points="74.3945,-103.782 67.2129,-95.9923 67.9695,-106.56 74.3945,-103.782"/>
</g>
<!-- YourTurn&#45;&gt;WaitingDeal -->
<g id="edge22" class="edge"><title>YourTurn&#45;&gt;WaitingDeal</title>
<path fill="none" stroke="black" d="M189.581,-96.156C188.001,-115.683 180.374,-146.376 167,-170 160.742,-181.054 151.904,-191.74 142.883,-200.705"/>
<polygon fill="black" stroke="black" points="140.216,-198.408 135.316,-207.802 145.004,-203.514 140.216,-198.408"/>
</g>
<!-- YourTurn&#45;&gt;EndOfTrick -->
<g id="edge24" class="edge"><title>YourTurn&#45;&gt;EndOfTrick</title>
<path fill="none" stroke="black" d="M168.757,-95.0182C156.934,-105.002 141.004,-117.515 126.588,-128.177"/>
<polygon fill="black" stroke="black" points="124.335,-125.488 118.318,-134.208 128.46,-131.144 124.335,-125.488"/>
</g>
<!-- GameEnded&#45;&gt;end_node -->
<g id="edge32" class="edge"><title>GameEnded&#45;&gt;end_node</title>
<path fill="none" stroke="black" d="M59,-57.9101C59,-49.9532 59,-40.6758 59,-32.4818"/>
<polygon fill="black" stroke="black" points="62.5001,-32.2053 59,-22.2053 55.5001,-32.2054 62.5001,-32.2053"/>
</g>
</g>
</svg>
